<svg xmlns="http://www.w3.org/2000/svg" width="535.094" height="384.517" viewBox="0 0 535.094 384.517">
  <g id="OBJECTS" transform="translate(1095.012 -374.14)">
    <g id="Group_1694" data-name="Group 1694" transform="translate(-1095.012 374.14)">
      <g id="Group_1693" data-name="Group 1693" transform="translate(0 0)">
        <g id="Group_1637" data-name="Group 1637">
          <path id="Path_3139" data-name="Path 3139" d="M529.825,473.577c31.426,0,50.451-32.181,31.98-55.1q-.583-.725-1.2-1.428c-11.293-12.8-28.434-17.39-43.615-24.535-4.195-1.974-8.414-4.28-11.343-7.993-4.078-5.169-5.057-12.4-4.214-19.045,3.528-27.816,33.86-44.961,38.756-72.548,3.7-20.869-9.073-42.06-26.378-53.106S475.585,226,455.335,225.139s-40.78-.1-60.49-5.036c-5.2-1.3-10.58-3.177-14.112-7.376-4.005-4.762-4.846-11.646-4.21-17.958,1.717-17.013,40.482-75.5,21.067-94.8-7.644-7.6-18.014-11.71-28.448-10.664s-20.181,5.838-29.317,11.22c-19.306,11.373-86.647,86.765-110.877,98.16-23.813,11.2-51.162,7.905-77.259,7.368S96.586,209.4,79.529,230.1c-6.041,7.329-10.212,17.2-8.184,26.65,1.266,5.9,4.8,10.994,8.8,15.338,9.157,9.922,21.1,16.766,29.756,27.165s13.233,26.909,5.088,37.757c-3.161,4.208-7.756,6.915-12.257,9.453-25.175,14.2-53.421,28.763-64.417,56.405C32.7,416.981,32.811,432.545,36.98,447.2c4.416,15.523,19.94,26.381,37.721,26.381Z" transform="translate(-33.966 -89.14)" fill="#cae2ff"/>
          <path id="Path_3140" data-name="Path 3140" d="M524.138,417.049c-11.293-12.8-28.434-17.39-43.615-24.535-4.195-1.974-8.414-4.28-11.343-7.993-4.078-5.169-5.057-12.4-4.214-19.045,3.528-27.816,33.86-44.961,38.756-72.548,3.7-20.869-9.073-42.06-26.378-53.106S439.122,226,418.873,225.136s-40.78-.1-60.49-5.036c-5.2-1.3-10.58-3.177-14.112-7.376-4.005-4.762-4.846-11.646-4.21-17.958,1.717-17.013,40.482-75.5,21.067-94.8A36.186,36.186,0,0,0,336.8,89.155C349.065,92.49,358.035,99.5,351.5,113.87,336.424,147.049,196.471,257.442,294.8,268.3s-64.547,98.328,9.652,104.36c56.6,4.6-59.511,70.909-117.572,100.913H493.363c31.426,0,50.451-32.181,31.98-55.1Q524.76,417.753,524.138,417.049Z" transform="translate(2.496 -89.137)" fill="#a6cef4" opacity="0.41" style="mix-blend-mode: multiply;isolation: isolate"/>
          <path id="Path_3141" data-name="Path 3141" d="M102.2,178.455s101.912,35.08,147.229-46.924S16.67,147.987,102.2,178.455Z" transform="translate(-21.617 -86.637)" fill="#cae2ff"/>
          <path id="Path_3142" data-name="Path 3142" d="M224,99.65c7.22,4.794,8.653,13.441,1.1,27.1-32.061,58.016-92.442,57.427-125.028,52.118,11.893,3.7,103.6,29.267,145.938-47.339C258.538,108.871,246.366,100,224,99.65Z" transform="translate(-18.201 -86.634)" fill="#a6cef4" opacity="0.41" style="mix-blend-mode: multiply;isolation: isolate"/>
        </g>
        <g id="Group_1644" data-name="Group 1644" transform="translate(0.288 237.027)">
          <g id="Group_1643" data-name="Group 1643" transform="translate(0 0)">
            <g id="Group_1638" data-name="Group 1638" transform="translate(21.454)">
              <path id="Path_3143" data-name="Path 3143" d="M76.826,390.16s-3.719-3.474-1.222-16.653,8.83-25.837,5.723-40.134-27.471-50.35-27.553-52.748-7.516,41.941,5.083,59.407,14.116,23.526,13.556,32.711.13,16.582,1.512,18.718Z" transform="translate(-51.521 -280.53)" fill="#4286e8"/>
              <path id="Path_3144" data-name="Path 3144" d="M74.088,363.634c-1.465,5.879-2.351,20.621-.009,24.15.218.329.533.142.924-.467-.713-2.437-1.181-6.707.167-13.829,2.5-13.181,8.83-25.837,5.723-40.134S53.422,283,53.34,280.606c0,0,3.672,30.037,16.035,50.711C78.228,346.119,75.552,357.755,74.088,363.634Z" transform="translate(-51.088 -280.512)" fill="#1d54b5"/>
            </g>
            <g id="Group_1639" data-name="Group 1639" transform="translate(49.105 32.161)">
              <path id="Path_3145" data-name="Path 3145" d="M75.946,383.053s-7.158-17.87,4.972-33.343,31.531-35.34,31.917-43.211c0,0,4.985,37.368-10.8,47.945s-26.862,12.267-24.124,28.541Z" transform="translate(-73.848 -306.499)" fill="#4286e8"/>
              <path id="Path_3146" data-name="Path 3146" d="M92.651,346.932c-17.6,12.815-19.045,27.577-16.313,34.423a1.746,1.746,0,0,0,1.146,1.032c-2.36-15.71,8.622-17.5,24.212-27.942,15.789-10.578,10.8-47.945,10.8-47.945S110.258,334.118,92.651,346.932Z" transform="translate(-73.512 -306.499)" fill="#1d54b5"/>
            </g>
            <g id="Group_1641" data-name="Group 1641" transform="translate(0 25.046)">
              <path id="Path_3147" data-name="Path 3147" d="M73.629,384.824A62.468,62.468,0,0,0,74.7,365.145c-1.221-10.215-11.893-15.962-21.865-26.752-5.13-5.552-6.647-34.911-3.466-37.639,0,0-17.6,21.335-14.889,36.955s31.433,25.772,34.092,33.319a41.917,41.917,0,0,1,2.437,13.885Z" transform="translate(-34.198 -300.754)" fill="#4286e8"/>
              <g id="Group_1640" data-name="Group 1640" transform="translate(7.092)">
                <path id="Path_3148" data-name="Path 3148" d="M42.057,309.074c-5.819,15.757.145,34.84,19.473,46.693,14.23,8.726,9.7,26.871,9.7,26.871l2.325-7.159a56.823,56.823,0,0,0-.215-10.41c-1.221-10.215-11.893-15.962-21.865-26.752-4.948-5.355-6.533-32.847-3.786-37.241A94.025,94.025,0,0,0,42.057,309.074Z" transform="translate(-39.924 -300.677)" fill="#1d54b5"/>
                <path id="Path_3149" data-name="Path 3149" d="M46.192,301.152c.2-.251.32-.4.32-.4A1.8,1.8,0,0,0,46.192,301.152Z" transform="translate(-38.43 -300.754)" fill="#49b4d6"/>
              </g>
            </g>
            <g id="Group_1642" data-name="Group 1642" transform="translate(54.886 70.466)">
              <path id="Path_3150" data-name="Path 3150" d="M78.516,374.9s4.127-15.31,14.331-17.37,21.923-17.14,22.556-20.1C115.4,337.429,113.683,365.868,78.516,374.9Z" transform="translate(-78.516 -337.429)" fill="#4286e8"/>
              <path id="Path_3151" data-name="Path 3151" d="M91.5,362.588c-6.253,3.126-8.852,7.332-9.776,11.148,31.309-10.069,32.916-36.308,32.916-36.308a11.208,11.208,0,0,1-1.59,2.991C109.978,345.8,102.544,357.066,91.5,362.588Z" transform="translate(-77.751 -337.429)" fill="#1d54b5"/>
            </g>
          </g>
          <path id="Path_3152" data-name="Path 3152" d="M106.623,363.131H53.251L59.589,403a6.226,6.226,0,0,0,6.149,5.249h28.4A6.226,6.226,0,0,0,100.285,403Z" transform="translate(-29.655 -260.834)" fill="#f95858"/>
          <path id="Path_3153" data-name="Path 3153" d="M105.575,369.727l1.049-6.6H53.251l1.049,6.6Z" transform="translate(-29.655 -260.834)" fill="#e53838"/>
          <path id="Path_3154" data-name="Path 3154" d="M88.31,363.131,81.972,403a6.226,6.226,0,0,1-6.149,5.249H88.754A6.226,6.226,0,0,0,94.9,403l6.338-39.864Z" transform="translate(-24.273 -260.834)" fill="#e53838"/>
        </g>
        <g id="Group_1662" data-name="Group 1662" transform="translate(79.765 121.906)">
          <g id="Group_1645" data-name="Group 1645" transform="translate(142.84 44)">
            <rect id="Rectangle_121" data-name="Rectangle 121" width="11.109" height="90.859" transform="translate(53.669 127.752)" fill="#fff"/>
            <rect id="Rectangle_122" data-name="Rectangle 122" width="4.364" height="90.859" transform="translate(60.414 127.752)" fill="#e8f2fc"/>
            <path id="Path_3155" data-name="Path 3155" d="M299.707,393.615H238.981a3.72,3.72,0,0,0-3.72,3.72h0a3.72,3.72,0,0,0,3.72,3.72h60.726a3.72,3.72,0,0,0,3.72-3.72h0A3.72,3.72,0,0,0,299.707,393.615Z" transform="translate(-208.572 -182.445)" fill="#fff"/>
            <path id="Path_3156" data-name="Path 3156" d="M299.6,393.615H238.877a3.706,3.706,0,0,0-3.177,1.809h52.592a3.7,3.7,0,0,1,3.177,5.631H299.6a3.72,3.72,0,0,0,0-7.441Z" transform="translate(-208.468 -182.445)" fill="#e8f2fc"/>
            <rect id="Rectangle_123" data-name="Rectangle 123" width="11.109" height="8.09" transform="translate(53.669 127.752)" fill="#e8f2fc"/>
            <path id="Path_3157" data-name="Path 3157" d="M336.043,224.179A12.648,12.648,0,0,0,330.9,223.1H268.36a12.735,12.735,0,0,0-12.508,10.344L236.253,335.9a12.788,12.788,0,0,0,0,4.819c.006.035.017.068.025.1H218.891a5.181,5.181,0,0,0,0,10.362h56.2v-.157h36.222a12.735,12.735,0,0,0,12.508-10.344l19.587-102.457A12.751,12.751,0,0,0,336.043,224.179Z" transform="translate(-213.711 -223.103)" fill="#f93"/>
            <path id="Path_3158" data-name="Path 3158" d="M343.4,238.022,323.823,340.482a12.726,12.726,0,0,1-12.5,10.336H275.089v.164H218.9a5.182,5.182,0,0,1,0-10.363h17.385a.32.32,0,0,1-.027-.109c.15.014.328.014.478.014h62.533A17.521,17.521,0,0,0,316.474,326.3l19.566-102.323A12.747,12.747,0,0,1,343.4,238.022Z" transform="translate(-213.71 -222.895)" fill="#e8f2fc"/>
            <path id="Path_3159" data-name="Path 3159" d="M316.6,306.1l-.123.613a17.521,17.521,0,0,1-17.209,14.222H236.73c-.15,0-.328,0-.478-.014a.321.321,0,0,0,.027.109H218.894a5.17,5.17,0,0,0-5.114,4.39v-14c0-.027-.014-.068-.014-.109A4.686,4.686,0,0,1,218.5,306.1Z" transform="translate(-213.709 -203.311)" fill="#fff"/>
            <path id="Path_3160" data-name="Path 3160" d="M331.746,224.179,312.184,326.5a17.536,17.536,0,0,1-17.208,14.23h-62.54c-.155,0-.323,0-.478-.011a12.788,12.788,0,0,1,0-4.819l19.6-102.457A12.735,12.735,0,0,1,264.064,223.1H326.6A12.648,12.648,0,0,1,331.746,224.179Z" transform="translate(-209.415 -223.103)" fill="#fff"/>
          </g>
          <g id="Group_1649" data-name="Group 1649" transform="translate(6.435 20.512)">
            <path id="Path_3161" data-name="Path 3161" d="M214.1,204.138H107.631a4.061,4.061,0,0,0-4.019,4.647l9.116,62.6a4.062,4.062,0,0,0,4.019,3.476H223.212a4.061,4.061,0,0,0,4.02-4.647l-9.117-62.6A4.06,4.06,0,0,0,214.1,204.138Z" transform="translate(-103.569 -204.138)" fill="#1d54b5"/>
            <path id="Path_3162" data-name="Path 3162" d="M199.2,204.138H107.631a4.061,4.061,0,0,0-4.019,4.647l4.029,27.667a81.725,81.725,0,0,0,32.753,6.733C170.924,243.185,188.915,226.966,199.2,204.138Z" transform="translate(-103.569 -204.138)" fill="#3070ce"/>
            <g id="Group_1646" data-name="Group 1646" transform="translate(39.212 47.776)">
              <path id="Path_3163" data-name="Path 3163" d="M158.247,242.717H138.088a2.852,2.852,0,0,0-2.826,3.265L141.37,287.9a3.257,3.257,0,0,0,.024.4l.276,1.653a2.851,2.851,0,0,0,2.819,2.439h19.9Z" transform="translate(-135.231 -242.715)" fill="#4286e8"/>
              <path id="Path_3164" data-name="Path 3164" d="M184.124,289.462a2.889,2.889,0,0,0-2.889-2.844H165.983a4.5,4.5,0,0,1-4.455-3.886l-4.47-32.657h2.649a2.853,2.853,0,0,0,2.824-3.265l-.271-1.653a2.853,2.853,0,0,0-2.824-2.442h-5.289a3.988,3.988,0,0,0-3.952,4.518l5.576,41.544a4.17,4.17,0,0,0,4.133,3.615l21.33,0a2.891,2.891,0,0,0,2.891-2.934Z" transform="translate(-131.672 -242.715)" fill="#1d54b5"/>
            </g>
            <g id="Group_1647" data-name="Group 1647" transform="translate(76.886 59.772)">
              <path id="Path_3165" data-name="Path 3165" d="M169.47,254.31a1.909,1.909,0,1,1-1.91-1.908A1.909,1.909,0,0,1,169.47,254.31Z" transform="translate(-165.652 -252.402)" fill="#4286e8"/>
              <path id="Path_3166" data-name="Path 3166" d="M177.385,254.31a1.908,1.908,0,1,1-1.908-1.908A1.909,1.909,0,0,1,177.385,254.31Z" transform="translate(-163.764 -252.402)" fill="#4286e8"/>
              <circle id="Ellipse_83" data-name="Ellipse 83" cx="1.909" cy="1.909" r="1.909" transform="translate(18.393)" fill="#4286e8"/>
            </g>
            <path id="Path_3167" data-name="Path 3167" d="M191.839,233.17l5.566,38.211a4.061,4.061,0,0,0,4.019,3.476h1.6a4.061,4.061,0,0,0,4.02-4.647l-9.117-62.6a4.06,4.06,0,0,0-4.019-3.475h-1.6a4.06,4.06,0,0,0-4.019,4.647l3.551,24.385" transform="translate(-83.378 -204.138)" fill="#4286e8"/>
            <g id="Group_1648" data-name="Group 1648" transform="translate(29.526 6.834)">
              <path id="Path_3168" data-name="Path 3168" d="M166.064,209.656H128.886a1.475,1.475,0,0,0-1.456,1.71l.249,1.539a1.476,1.476,0,0,0,1.456,1.24h37.179a1.475,1.475,0,0,0,1.456-1.71l-.25-1.539A1.474,1.474,0,0,0,166.064,209.656Z" transform="translate(-127.41 -209.656)" fill="#4286e8"/>
            </g>
          </g>
          <g id="Group_1658" data-name="Group 1658" transform="translate(122.08)">
            <path id="Path_3169" data-name="Path 3169" d="M292.716,233.994c-1.18-9.062-14.451-4.824-9.469-13.269,4.607-7.81-.755-11.265-7.094-12.482-8.082-1.554-3.494-4.737-7.427-12.278-5-9.582-12.705-6.736-12.705-6.736s-9.664-5.253-19.508,3.053c-10.373,8.752-8.112,16.495-2.559,27.127,2.806,5.375-.639,10.161-3.095,20.041-2.946,11.852,11.687,35.709,43,19.595C285.966,252.813,293.341,238.8,292.716,233.994Z" transform="translate(-189.243 -187.571)" fill="#13448c"/>
            <path id="Path_3170" data-name="Path 3170" d="M256.07,227.972s-4.78.511-9.645,5.376c-3.27,3.271-19.278,35.134-19.278,35.134l-14.775-45.247-10.818.832s12.18,72.771,21.657,72.906c8.961.129,37.425-46.983,37.425-46.983Z" transform="translate(-195.849 -179.072)" fill="#f95858"/>
            <path id="Path_3171" data-name="Path 3171" d="M279.2,247.409l9.473,35.462-56.009,4.576.256,10.113s64.567.289,76.729.161c8.1-.085-7.151-64.223-16.88-71.564-7.694-5.8-28.965-4.257-28.965-4.257l-15.159,6.434s-17.582,17.41-7.084,33.8c8.269,12.908-2.271,37.984-2.271,37.984l35.8,2.13,31.972.3Z" transform="translate(-188.43 -179.435)" fill="#f95858"/>
            <path id="Path_3172" data-name="Path 3172" d="M242.4,285.285l2.006-.367c1.92-8.384,2.263-19.841-2.113-25.347-8.67-10.911.256-26.757,5.27-32.486h-.009c-.8.81-17.292,17.772-7.053,33.769C245.39,268.493,244.194,278.44,242.4,285.285Z" transform="translate(-187.36 -178.154)" fill="#e54848"/>
            <path id="Path_3173" data-name="Path 3173" d="M235.785,276.677c-5.924.217-12.259,2.336-15.224,5.819a1.2,1.2,0,0,0,.918,1.965h14.4Z" transform="translate(-191.385 -166.329)" fill="#ffb19e"/>
            <g id="Group_1652" data-name="Group 1652" transform="translate(48.84)">
              <path id="Path_3174" data-name="Path 3174" d="M262.934,215.147v11.958l-10.718,12.272-.068-.136L249.229,233v-6.709A13.6,13.6,0,0,1,237.9,215.692l-1.515-8.277a25.978,25.978,0,0,0,14.345-7.309,30.628,30.628,0,0,0,4.65,6.218c1.991,1.978,4.746,2.468,5.795,3.546A6.582,6.582,0,0,1,262.934,215.147Z" transform="translate(-236.384 -184.587)" fill="#ffb19e"/>
              <path id="Path_3175" data-name="Path 3175" d="M258.149,207.775a33.127,33.127,0,0,0-2.3-9.343c-2.192-4.956-5.278-10.76-11.682-10.777,0,0,15.55-2.417,18.154,19.232Z" transform="translate(-234.529 -187.575)" fill="#ff4751"/>
              <g id="Group_1650" data-name="Group 1650" transform="translate(18.923 16.932)">
                <path id="Path_3176" data-name="Path 3176" d="M265.666,208.072a7.039,7.039,0,1,0-6.164,8.293A7.317,7.317,0,0,0,265.666,208.072Z" transform="translate(-251.663 -201.247)" fill="#ff4751"/>
                <path id="Path_3177" data-name="Path 3177" d="M260.815,215.629a7.045,7.045,0,0,1-7.5-6.534,7.125,7.125,0,0,1,5.138-7.842c-.191,0-.383.01-.577.031a7.606,7.606,0,0,0,1.627,15.079,6.561,6.561,0,0,0,3.186-1.242A6.28,6.28,0,0,1,260.815,215.629Z" transform="translate(-251.663 -201.246)" fill="#cc3241"/>
                <path id="Path_3178" data-name="Path 3178" d="M262.1,207.552a3.412,3.412,0,1,0-2.988,4.019A3.546,3.546,0,0,0,262.1,207.552Z" transform="translate(-250.793 -200.533)" fill="#cc3241"/>
              </g>
              <path id="Path_3179" data-name="Path 3179" d="M256.888,217.15a43.1,43.1,0,0,1-5.018,5.483,3.553,3.553,0,0,0-1.255,2.754l-.94,9.79-2.919-6.246V222.25l.068-.068S253.574,221.16,256.888,217.15Z" transform="translate(-233.911 -180.523)" fill="#f48f7a"/>
              <g id="Group_1651" data-name="Group 1651" transform="translate(15.138 29.454)">
                <path id="Path_3180" data-name="Path 3180" d="M251.278,218.018l-.118-.681c3.91-.669,6.768-5.927,6.8-5.979l.61.327C258.445,211.913,255.517,217.294,251.278,218.018Z" transform="translate(-247.999 -211.358)" fill="#ff4751"/>
                <path id="Path_3181" data-name="Path 3181" d="M252.615,216.587c-.093-.642-1.063-.993-2.167-.788s-1.926.9-1.833,1.536,1.063.994,2.167.788S252.707,217.228,252.615,216.587Z" transform="translate(-248.607 -210.313)" fill="#ff4751"/>
              </g>
            </g>
            <path id="Path_3182" data-name="Path 3182" d="M212.187,226.976s1.527-12.522.152-12.98-2.749,4.887-2.749,4.887-5.8-11.3-9.773-10.079,3.33,18.6,3.33,18.6Z" transform="translate(-196.545 -182.535)" fill="#ffb19e"/>
            <path id="Path_3183" data-name="Path 3183" d="M241.37,281.323l44.1-3.688a2.543,2.543,0,0,0,2.286-3.026c-1.63-8.244-6.338-31.884-6.619-31.179-.342.853,4.437,27.823-1.2,30.554C276.095,275.851,241.37,281.323,241.37,281.323Z" transform="translate(-186.355 -174.26)" fill="#e54848"/>
            <g id="Group_1654" data-name="Group 1654" transform="translate(0 120.626)">
              <g id="Group_1653" data-name="Group 1653" transform="translate(61.624 108.601)">
                <path id="Path_3184" data-name="Path 3184" d="M268.266,380.967a1.433,1.433,0,0,0-.84.571c-2.808,3.9-5.3,4.827-10.221,5.49a2.916,2.916,0,0,0-.924.308c.378-.567,2.019-3.255.888-5.675a27.508,27.508,0,0,0-2.809-4.712l7.194-4.283S265.966,377.757,268.266,380.967Z" transform="translate(-244.882 -372.667)" fill="#ffb19e"/>
                <path id="Path_3185" data-name="Path 3185" d="M275.417,388.524c-1.272,1.219-21.8,12.439-26.676,15.254-.6.344-1.8.973-2.024.322-.347-1.018,8.53-18.147,12.314-18.66,4.92-.666,7.413-1.585,10.216-5.494a1.433,1.433,0,0,1,2.363.027C273.579,382.953,276.44,387.545,275.417,388.524Z" transform="translate(-246.707 -371.076)" fill="#13448c"/>
              </g>
              <path id="Path_3186" data-name="Path 3186" d="M248.1,284.976s-49.814,23.091-51.134,39.105c-1.175,14.242,72.24,79.4,72.24,79.4L280.81,398.7l-40.179-64.765S283.195,312.956,293.6,287.7Z" transform="translate(-196.948 -284.976)" fill="#13448c"/>
              <path id="Path_3187" data-name="Path 3187" d="M214.075,318.913c-3.38,6.5-5.862,15.582-7.593,23.812,5.64,6.7,12.754,14.233,20.106,21.647-5.431-21.457-10.252-42.977-8.586-46.058,3.177-5.878,24.286-21.5,39.2-29.276C257.205,289.038,221.916,303.833,214.075,318.913Z" transform="translate(-194.674 -284.007)" fill="#09326d"/>
            </g>
            <g id="Group_1657" data-name="Group 1657" transform="translate(22.989 121.743)">
              <g id="Group_1655" data-name="Group 1655" transform="translate(0.179 118.636)">
                <path id="Path_3188" data-name="Path 3188" d="M244.5,392.193a1.435,1.435,0,0,0-1.012.088c-4.357,2.036-6.98,1.625-11.6-.2a2.919,2.919,0,0,0-.957-.182c.607-.31,3.351-1.854,3.547-4.518a27.522,27.522,0,0,0-.149-5.483l8.369-.223S244.065,388.268,244.5,392.193Z" transform="translate(-212.012 -381.672)" fill="#ffb19e"/>
                <path id="Path_3189" data-name="Path 3189" d="M248.325,401.4c-1.705.442-25.932.173-31.563.246a1.089,1.089,0,0,1-1.089-1.286c.2-1.056,16.309-11.666,19.86-10.264,4.619,1.822,7.244,2.237,11.6.2a1.432,1.432,0,0,1,2.047,1.178C249.442,395.038,249.7,401.049,248.325,401.4Z" transform="translate(-215.655 -379.692)" fill="#13448c"/>
              </g>
              <g id="Group_1656" data-name="Group 1656">
                <path id="Path_3190" data-name="Path 3190" d="M310.984,287.141s4.174,28.209-21.112,35.35a343.034,343.034,0,0,1-41.306,8.5l1.53,80.067H236.8s-24.407-85.615-20.955-91.99c3.921-7.239,34.98-29.225,48.247-33.192Z" transform="translate(-215.511 -285.878)" fill="#1d54b5"/>
                <path id="Path_3191" data-name="Path 3191" d="M244.19,330.83a343.031,343.031,0,0,0,41.306-8.5c25.285-7.141,21.112-35.35,21.112-35.35l-15.654-.421c-4.7,10.113-20,35.153-57.089,37.854l8.4,86.485h3.456Z" transform="translate(-211.134 -285.716)" fill="#0e367c" opacity="0.13" style="mix-blend-mode: multiply;isolation: isolate"/>
              </g>
            </g>
          </g>
          <g id="Group_1661" data-name="Group 1661" transform="translate(0 118.056)">
            <g id="Group_1659" data-name="Group 1659" transform="translate(8.002 3.802)">
              <path id="Path_3192" data-name="Path 3192" d="M110.4,426.414l-5.567-.043L127.98,287.262l5.6-.043Z" transform="translate(-104.834 -285.673)" fill="#fff"/>
              <path id="Path_3193" data-name="Path 3193" d="M299.983,426.666l5.914.045-28.7-140.74-5.877.045Z" transform="translate(-65.135 -285.971)" fill="#fff"/>
            </g>
            <g id="Group_1660" data-name="Group 1660" transform="translate(29.631 3.802)">
              <path id="Path_3194" data-name="Path 3194" d="M127.891,294.931l1.526-7.712-5.6.043-1.517,7.669Z" transform="translate(-122.299 -285.673)" fill="#e4edf7"/>
              <path id="Path_3195" data-name="Path 3195" d="M279.082,295.229l-1.882-9.258-5.877.045,1.872,9.213Z" transform="translate(-86.764 -285.971)" fill="#e4edf7"/>
            </g>
            <path id="Path_3196" data-name="Path 3196" d="M352.2,282.9h-251a2.827,2.827,0,0,0-2.827,2.827h0a2.827,2.827,0,0,0,2.827,2.827h251a2.827,2.827,0,0,0,2.827-2.827h0A2.827,2.827,0,0,0,352.2,282.9Z" transform="translate(-98.373 -282.901)" fill="#fff"/>
          </g>
        </g>
        <g id="Group_1677" data-name="Group 1677" transform="translate(88.833 17.027)">
          <g id="Group_1667" data-name="Group 1667" transform="translate(70.26 58.236)">
            <path id="Path_3197" data-name="Path 3197" d="M237.753,191.3,231.139,153a3.606,3.606,0,0,0-3.569-3.086l-61.535.672a3.607,3.607,0,0,0-3.569,4.127l5.8,33.605,2.935,19.026a1.114,1.114,0,0,0,2.03.447l7.832-11.784,53.118-.581A3.607,3.607,0,0,0,237.753,191.3Z" transform="translate(-162.427 -149.912)" fill="#1d54b5"/>
            <g id="Group_1666" data-name="Group 1666" transform="translate(16.786 11.883)">
              <g id="Group_1663" data-name="Group 1663">
                <path id="Path_3198" data-name="Path 3198" d="M212.639,159.507H176.978a1,1,0,0,0-.983,1.155l.167,1.04a1,1,0,0,0,.985.837h35.661a1,1,0,0,0,.985-1.155l-.168-1.04A1,1,0,0,0,212.639,159.507Z" transform="translate(-175.981 -159.507)" fill="#fff"/>
              </g>
              <g id="Group_1664" data-name="Group 1664" transform="translate(1.198 9.465)">
                <path id="Path_3199" data-name="Path 3199" d="M213.607,167.15H177.945a1,1,0,0,0-.983,1.157l.168,1.039a1,1,0,0,0,.983.838h35.662a1,1,0,0,0,.983-1.157l-.168-1.04A1,1,0,0,0,213.607,167.15Z" transform="translate(-176.949 -167.15)" fill="#fff"/>
              </g>
              <g id="Group_1665" data-name="Group 1665" transform="translate(11.862 19.742)">
                <path id="Path_3200" data-name="Path 3200" d="M203.059,175.448l-16.5.028a1,1,0,0,0-.985,1.156l.168,1.04a1,1,0,0,0,.983.837l16.5-.028a1,1,0,0,0,.983-1.155l-.168-1.04A1,1,0,0,0,203.059,175.448Z" transform="translate(-185.56 -175.448)" fill="#fff"/>
              </g>
            </g>
          </g>
          <g id="Group_1672" data-name="Group 1672" transform="translate(326.888)">
            <path id="Path_3201" data-name="Path 3201" d="M438.31,141.818l8.189-36.025a2.148,2.148,0,0,0-2.2-2.9l-58.135.633a5.573,5.573,0,0,0-4.91,3.881l-7.184,31.61-4.4,17.9c-.232.946.893,1.219,1.741.421l11.8-11.085L433.4,145.7A5.57,5.57,0,0,0,438.31,141.818Z" transform="translate(-369.644 -102.889)" fill="#1d54b5"/>
            <g id="Group_1671" data-name="Group 1671" transform="translate(22.515 11.698)">
              <g id="Group_1668" data-name="Group 1668" transform="translate(2.317)">
                <path id="Path_3202" data-name="Path 3202" d="M423.149,112.335H391.234a1.464,1.464,0,0,0-1.3,1.034l-.22.931a.562.562,0,0,0,.581.749h31.915a1.46,1.46,0,0,0,1.294-1.035l.222-.93A.563.563,0,0,0,423.149,112.335Z" transform="translate(-389.695 -112.335)" fill="#fff"/>
              </g>
              <g id="Group_1669" data-name="Group 1669" transform="translate(0 8.471)">
                <path id="Path_3203" data-name="Path 3203" d="M421.279,119.175H389.363a1.465,1.465,0,0,0-1.294,1.035l-.222.93a.564.564,0,0,0,.581.75h31.916a1.464,1.464,0,0,0,1.294-1.035l.222-.931A.563.563,0,0,0,421.279,119.175Z" transform="translate(-387.824 -119.175)" fill="#fff"/>
              </g>
              <g id="Group_1670" data-name="Group 1670" transform="translate(5.855 17.668)">
                <path id="Path_3204" data-name="Path 3204" d="M408.871,126.6l-14.78.026a1.464,1.464,0,0,0-1.294,1.034l-.222.931a.563.563,0,0,0,.581.749l14.78-.026a1.461,1.461,0,0,0,1.294-1.034l.222-.931A.563.563,0,0,0,408.871,126.6Z" transform="translate(-392.552 -126.601)" fill="#fff"/>
              </g>
            </g>
          </g>
          <g id="Group_1676" data-name="Group 1676" transform="translate(0 50.192)">
            <path id="Path_3205" data-name="Path 3205" d="M170.086,192.569a1.114,1.114,0,0,0,1.811-1.047l-7.89-45.486a3.061,3.061,0,0,0-3.029-2.619l-52.22.571a3.061,3.061,0,0,0-3.029,3.5l5.613,32.5a3.062,3.062,0,0,0,3.029,2.621l40.21-.44a8.063,8.063,0,0,1,5.246,1.864Z" transform="translate(-105.695 -143.417)" fill="#f95858"/>
            <g id="Group_1675" data-name="Group 1675" transform="translate(11.471 13.651)">
              <g id="Group_1673" data-name="Group 1673">
                <path id="Path_3206" data-name="Path 3206" d="M151.616,154.44H115.955a1,1,0,0,0-.985,1.157l.168,1.04a1,1,0,0,0,.985.837h35.661a1,1,0,0,0,.983-1.155l-.168-1.04A1,1,0,0,0,151.616,154.44Z" transform="translate(-114.958 -154.44)" fill="#fff"/>
              </g>
              <g id="Group_1674" data-name="Group 1674" transform="translate(1.199 9.467)">
                <path id="Path_3207" data-name="Path 3207" d="M152.584,162.084H116.922a1,1,0,0,0-.983,1.155l.168,1.04a1,1,0,0,0,.983.837h35.661a1,1,0,0,0,.985-1.155l-.168-1.04A1,1,0,0,0,152.584,162.084Z" transform="translate(-115.926 -162.084)" fill="#fff"/>
              </g>
            </g>
          </g>
        </g>
        <g id="Group_1692" data-name="Group 1692" transform="translate(320.582 30.021)">
          <g id="Group_1690" data-name="Group 1690">
            <g id="Group_1680" data-name="Group 1680" transform="translate(0 54.874)">
              <path id="Path_3208" data-name="Path 3208" d="M397.44,244.45l-.192,7.159-4.3,166.254H375.773L360.557,275.411a.06.06,0,0,0-.014.041L341.2,323.48l13.2,94.381-6.348.054-10.5.1s-31.408-94.188-30.776-100.29S331,245.068,331,245.068Z" transform="translate(-289.498 -137.001)" fill="#1d54b5"/>
              <path id="Path_3209" data-name="Path 3209" d="M394.233,162.235l-32.27-4.436-.756-.11-15.432.069-.137.027-18.43,4.612V266.049h67.026Z" transform="translate(-284.624 -157.689)" fill="#f95858"/>
              <path id="Path_3210" data-name="Path 3210" d="M425.917,180.883s2.346-14.653,4.048-14.724,1.518,6.418,1.518,6.418,10.236-10.887,14.326-8.215S436,184.305,436,184.305Z" transform="translate(-261.087 -156.199)" fill="#ffb19e"/>
              <path id="Path_3211" data-name="Path 3211" d="M354,157.821l1.747,114.458H331.615l-1.7-31.327-32.02-.52a4.907,4.907,0,0,1-4.873-6.26l15.951-55.463A18.849,18.849,0,0,1,322.532,165.6l31.3-7.833Z" transform="translate(-292.823 -157.671)" fill="#4286e8"/>
              <path id="Path_3212" data-name="Path 3212" d="M453.9,186.24l-31.045,63.775a5.3,5.3,0,0,1-9.166.178l-24.3-40.264-1.21,62.347h-25.78l-7.215-114.471.1-.027,32.789,4.508a19.005,19.005,0,0,1,14.25,10.5l16.587,34.2a1.3,1.3,0,0,0,2.157.26l21.1-25.2Z" transform="translate(-277.951 -157.668)" fill="#4286e8"/>
              <path id="Path_3213" data-name="Path 3213" d="M322.647,228.371h31.461l.3-16.11-31.461-.456Z" transform="translate(-285.711 -144.786)" fill="#4286e8"/>
              <path id="Path_3214" data-name="Path 3214" d="M348.236,223.834c8.873-.324,18.365-3.5,22.807-8.717a1.792,1.792,0,0,0-1.375-2.944H348.1Z" transform="translate(-279.643 -144.698)" fill="#ffb19e"/>
              <path id="Path_3215" data-name="Path 3215" d="M342,225.84l.03-.516-19.248-.142,1.688,31.022,5.742-25.7Z" transform="translate(-285.679 -141.596)" fill="#13448c" opacity="0.41"/>
              <path id="Path_3216" data-name="Path 3216" d="M383.108,250.231l-4.3,166.254H377.6L366.068,250.231Z" transform="translate(-275.358 -135.623)" fill="#0e367c" opacity="0.32" style="mix-blend-mode: multiply;isolation: isolate"/>
              <path id="Path_3217" data-name="Path 3217" d="M356.43,216.557s-42.678,3.091-42.4,2.28l7.408-25.529.109.385.728,17.809C322.368,213.921,354.2,215.926,356.43,216.557Z" transform="translate(-287.767 -149.196)" fill="#13448c" opacity="0.41"/>
              <path id="Path_3218" data-name="Path 3218" d="M416.274,244.545l31.045-63.775-.144-.048c-3.294-.015-32.181,60.382-35.22,61.9-3.46,1.73-29.143-38.164-29.143-38.164l24.3,40.264A5.3,5.3,0,0,0,416.274,244.545Z" transform="translate(-271.365 -152.197)" fill="#13448c" opacity="0.41"/>
              <g id="Group_1678" data-name="Group 1678" transform="translate(28.299 280.71)">
                <path id="Path_3219" data-name="Path 3219" d="M337.379,384.473c-3.7,7.587-21.31,11.421-21.31,11.421s-1.269,2.239.739,5.07,20.537,1.1,22.859.582a8.078,8.078,0,0,0,3.921-2.4,12.947,12.947,0,0,0,2.43,2.113c.871.419,5.6-.529,5.6-.529,1.113-3.018,0-14.541-.317-16.378Z" transform="translate(-315.674 -384.352)" fill="#13448c"/>
              </g>
              <g id="Group_1679" data-name="Group 1679" transform="translate(87.117 280.71)">
                <path id="Path_3220" data-name="Path 3220" d="M377.892,384.473c3.7,7.587,21.31,11.421,21.31,11.421s1.269,2.239-.741,5.07-20.536,1.1-22.858.582a8.078,8.078,0,0,1-3.921-2.4,12.945,12.945,0,0,1-2.43,2.113c-.871.419-5.6-.529-5.6-.529-1.113-3.018,0-14.541.317-16.378Z" transform="translate(-363.167 -384.352)" fill="#13448c"/>
              </g>
              <path id="Path_3221" data-name="Path 3221" d="M336.548,317.511l13.2,94.381-6.348.055c-3.917-20.324-17.612-88.278-17.1-92.538.591-5.085,28.728-48.483,29.594-49.926Z" transform="translate(-284.845 -131.032)" fill="#0e367c" opacity="0.32" style="mix-blend-mode: multiply;isolation: isolate"/>
            </g>
            <g id="Group_1689" data-name="Group 1689" transform="translate(48.644)">
              <g id="Group_1682" data-name="Group 1682" transform="translate(1.345)">
                <path id="Path_3222" data-name="Path 3222" d="M358.324,160.486c-2.339,1.868-7.993,5.848-7.993,5.848s-5.753-3.941-8.13-5.833l-.019-13.66h16.142Z" transform="translate(-331.042 -105.402)" fill="#ffb19e" fill-rule="evenodd"/>
                <path id="Path_3223" data-name="Path 3223" d="M358.329,146.841v5.714a12.726,12.726,0,0,1-16.142.066v-5.78Z" transform="translate(-331.041 -105.402)" fill="#ffb19e" fill-rule="evenodd"/>
                <path id="Path_3224" data-name="Path 3224" d="M334.482,145.989h36.269l.56-10.1c8.018-3.392,2-22.511,2-22.511.463,4.626-12.027,4.779-16.961,4.009a13.42,13.42,0,0,0-8.326,1.234s-15.727-3.392-14.8,18.657A40.614,40.614,0,0,0,334.482,145.989Z" transform="translate(-333.187 -113.381)" fill="#13448c" fill-rule="evenodd"/>
                <g id="Group_1681" data-name="Group 1681" transform="translate(0.069 14.973)">
                  <path id="Path_3225" data-name="Path 3225" d="M366.024,132.993v9.1a14.126,14.126,0,0,1-4.429,10.279c-.462.41-.925.855-1.4,1.3a12.721,12.721,0,0,1-17.43,0l-1.387-1.3a14.039,14.039,0,0,1-4.446-10.249v-6.945s4.2-2.816,9.983-9.707C346.911,125.471,353.3,131.606,366.024,132.993Z" transform="translate(-332.365 -125.471)" fill="#ffb19e" fill-rule="evenodd"/>
                  <path id="Path_3226" data-name="Path 3226" d="M358.329,148.669v3.45a12.726,12.726,0,0,1-16.142.066v-3.463A12.707,12.707,0,0,0,358.329,148.669Z" transform="translate(-331.111 -119.939)" fill="#f48f7a" fill-rule="evenodd"/>
                  <path id="Path_3227" data-name="Path 3227" d="M341.419,141.977a4.619,4.619,0,0,0-6.449-6.45,2.79,2.79,0,0,0-.878.878,4.618,4.618,0,0,0,6.45,6.45A2.787,2.787,0,0,0,341.419,141.977Z" transform="translate(-333.243 -123.274)" fill="#ffb19e" fill-rule="evenodd"/>
                  <path id="Path_3228" data-name="Path 3228" d="M364.814,141.979a4.6,4.6,0,0,0-6.128-6.637,3.5,3.5,0,0,0-1.387,1.388,4.6,4.6,0,0,0,6.637,6.127A2.765,2.765,0,0,0,364.814,141.979Z" transform="translate(-327.664 -123.274)" fill="#ffb19e" fill-rule="evenodd"/>
                </g>
              </g>
              <g id="Group_1688" data-name="Group 1688" transform="translate(0 3.601)">
                <path id="Path_3229" data-name="Path 3229" d="M370,136.758h-1.38v-4.775c0-7.93-7.231-14.381-16.122-14.381h-.68c-8.891,0-16.123,6.451-16.123,14.381v4.775h-1.378v-4.775c0-8.653,7.85-15.694,17.5-15.694h.68c9.65,0,17.5,7.041,17.5,15.694Z" transform="translate(-331.573 -116.289)" fill="#a31919"/>
                <g id="Group_1687" data-name="Group 1687" transform="translate(0 17.923)">
                  <g id="Group_1685" data-name="Group 1685">
                    <g id="Group_1683" data-name="Group 1683" transform="translate(33.39)">
                      <path id="Path_3230" data-name="Path 3230" d="M362.951,130.761h0a3.9,3.9,0,0,0-3.889,3.89v6.932a3.9,3.9,0,0,0,3.889,3.889h0a3.9,3.9,0,0,0,3.889-3.889v-6.932A3.9,3.9,0,0,0,362.951,130.761Z" transform="translate(-359.062 -130.761)" fill="#f95858"/>
                      <path id="Path_3231" data-name="Path 3231" d="M362.426,130.761a3.829,3.829,0,0,0-1.165.2,3.891,3.891,0,0,1,2.722,3.691v6.932a3.89,3.89,0,0,1-2.722,3.689,3.79,3.79,0,0,0,1.165.2,3.9,3.9,0,0,0,3.889-3.889v-6.932A3.9,3.9,0,0,0,362.426,130.761Z" transform="translate(-358.538 -130.761)" fill="#cc3241"/>
                    </g>
                    <g id="Group_1684" data-name="Group 1684">
                      <path id="Path_3232" data-name="Path 3232" d="M335.99,130.761h0a3.9,3.9,0,0,0-3.889,3.89v6.932a3.9,3.9,0,0,0,3.889,3.889h0a3.9,3.9,0,0,0,3.889-3.889v-6.932A3.9,3.9,0,0,0,335.99,130.761Z" transform="translate(-332.101 -130.761)" fill="#f95858"/>
                      <path id="Path_3233" data-name="Path 3233" d="M335.465,130.761a3.828,3.828,0,0,0-1.165.2,3.891,3.891,0,0,1,2.722,3.691v6.932a3.89,3.89,0,0,1-2.722,3.689,3.79,3.79,0,0,0,1.165.2,3.9,3.9,0,0,0,3.889-3.889v-6.932A3.9,3.9,0,0,0,335.465,130.761Z" transform="translate(-331.577 -130.761)" fill="#cc3241"/>
                    </g>
                  </g>
                  <g id="Group_1686" data-name="Group 1686" transform="translate(23.087 12.427)">
                    <path id="Path_3234" data-name="Path 3234" d="M353.731,147.422l-.05-.773c4.435-.281,8.243-5.8,8.282-5.854l.64.437C362.439,141.472,358.538,147.117,353.731,147.422Z" transform="translate(-350.042 -140.795)" fill="#ff4751"/>
                    <path id="Path_3235" data-name="Path 3235" d="M355.289,146.089c-.027-.726-1.066-1.234-2.322-1.134s-2.251.768-2.224,1.492,1.066,1.234,2.322,1.134S355.315,146.813,355.289,146.089Z" transform="translate(-350.743 -139.806)" fill="#ff4751"/>
                  </g>
                </g>
              </g>
            </g>
          </g>
          <g id="Group_1691" data-name="Group 1691" transform="translate(33.018 75.054)">
            <path id="Path_3236" data-name="Path 3236" d="M381.159,173.984H324.823a5.478,5.478,0,0,0-5.334,5.87l1.477,36.261a5.551,5.551,0,0,0,5.47,5.289h53.11a5.55,5.55,0,0,0,5.469-5.289l1.477-36.261A5.478,5.478,0,0,0,381.159,173.984Z" transform="translate(-319.484 -173.984)" fill="#13448c"/>
            <path id="Path_3237" data-name="Path 3237" d="M380.879,173.984H324.543a5.191,5.191,0,0,0-3.884,1.754,5.073,5.073,0,0,1,1.453-.233h56.335a5.476,5.476,0,0,1,5.334,5.869L382.3,217.634a5.488,5.488,0,0,1-1.5,3.515,5.555,5.555,0,0,0,3.935-5.034l1.477-36.261A5.478,5.478,0,0,0,380.879,173.984Z" transform="translate(-319.204 -173.984)" fill="#1d54b5"/>
            <path id="Path_3238" data-name="Path 3238" d="M353.822,195.116a6.384,6.384,0,1,0-6.383,6.384A6.384,6.384,0,0,0,353.822,195.116Z" transform="translate(-314.34 -170.467)" fill="#4286e8"/>
          </g>
        </g>
      </g>
    </g>
  </g>
</svg>
